<?xml version="1.0" encoding="utf-8"?>
<svg version="1.1" xmlns="http://www.w3.org/2000/svg"
	viewBox="0 0 24.0 24.0" enable-background="new 0 0 24 24" xml:space="preserve">
  <g fill-rule="nonzero">
  	<path fill="#FFFFFF" fill-opacity="1.000"
  		d="M0.00,0.00L24.00,0.00L24.00,24.00L0.00,24.00z"/>
  	<path fill="#363636" fill-opacity="0.753"
  		d="M0.01,24.05L4.21,11.14L11.67,19.12L16.55,3.82L19.47,4.27L24.28,0.06L24.31,24.11"/>
  	<path fill="#C89E00" fill-opacity="1.000"
  		d="M13.55,9.43L16.32,9.43A3.28 3.28 0 0 1 19.60,12.71L19.60,16.18A3.28 3.28 0 0 1 16.32,19.46L13.55,19.46A3.28 3.28 0 0 1 10.27,16.18L10.27,12.71A3.28 3.28 0 0 1 13.55,9.43z"/>
  	<path fill="#E5C100" fill-opacity="1.000"
  		d="M13.74,9.33L16.52,9.33A3.28 3.28 0 0 1 19.79,12.61L19.79,16.09A3.28 3.28 0 0 1 16.52,19.36L13.74,19.36A3.28 3.28 0 0 1 10.47,16.09L10.47,12.61A3.28 3.28 0 0 1 13.74,9.33z"/>
  	<path fill="#000000" fill-opacity="0.337"
  		d="M13.94,10.15L16.34,10.15A2.83 2.83 0 0 1 19.17,12.98L19.17,15.71A2.83 2.83 0 0 1 16.34,18.54L13.94,18.54A2.83 2.83 0 0 1 11.11,15.71L11.11,12.98A2.83 2.83 0 0 1 13.94,10.15z"/>
  	<path fill="#BF9700" fill-opacity="1.000"
  		d="M13.86,10.15L16.26,10.15A2.83 2.83 0 0 1 19.09,12.98L19.09,15.71A2.83 2.83 0 0 1 16.26,18.54L13.86,18.54A2.83 2.83 0 0 1 11.03,15.71L11.03,12.98A2.83 2.83 0 0 1 13.86,10.15z"/>
  	<path fill="#000000" fill-opacity="0.318"
  		d="M15.88,15.75Q16.17,15.62,16.61,15.23C17.04,14.78,17.71,15.28,17.34,15.68Q16.61,16.35,15.92,16.57L15.92,17.62C15.92,18.17,15.13,18.17,15.13,17.62L15.10,16.69Q14.80,16.70,14.54,16.66L14.54,17.62C14.54,18.17,13.75,18.17,13.75,17.62L13.75,16.46C12.02,15.77,11.95,13.46,13.75,12.35L13.74,11.20C13.74,10.64,14.53,10.64,14.53,11.20L14.52,12.05Q14.78,11.98,15.11,11.96L15.12,11.20C15.12,10.64,15.91,10.64,15.91,11.20L15.91,12.01Q16.63,12.14,17.07,12.66C17.57,13.16,16.99,13.71,16.47,13.30Q16.21,12.88,15.91,12.80zM14.57,12.95L14.52,15.83Q14.85,15.94,15.17,15.93L15.19,12.82Q14.84,12.84,14.57,12.95zM13.81,13.34C13.24,13.93,13.11,15.05,13.79,15.57L13.81,13.34z"/>
  	<path fill="#E8C300" fill-opacity="1.000"
  		d="M16.00,15.69Q16.30,15.55,16.73,15.17C17.16,14.72,17.83,15.22,17.46,15.62Q16.73,16.29,16.04,16.51L16.04,17.56C16.04,18.11,15.25,18.11,15.25,17.56L15.22,16.63Q14.92,16.63,14.67,16.60L14.66,17.56C14.66,18.11,13.87,18.11,13.87,17.56L13.87,16.40C12.14,15.71,12.07,13.40,13.87,12.29L13.86,11.13C13.86,10.58,14.65,10.58,14.65,11.13L14.64,11.99Q14.90,11.92,15.23,11.90L15.24,11.13C15.24,10.58,16.03,10.58,16.03,11.13L16.03,11.95Q16.75,12.08,17.19,12.60C17.69,13.10,17.11,13.65,16.59,13.24Q16.33,12.82,16.03,12.74zM14.69,12.89L14.65,15.77Q14.97,15.88,15.29,15.87L15.32,12.76Q14.96,12.78,14.69,12.89zM13.93,13.28C13.36,13.87,13.23,14.99,13.91,15.51L13.93,13.28z"/>
  	<path fill="#946E4A" fill-opacity="1.000"
  		d="M10.12,4.81C11.01,5.20,11.47,5.40,12.65,5.64L8.45,17.22C7.41,17.96,6.35,17.54,6.27,16.48L10.12,4.81z"/>
  	<path fill="#C19A6B" fill-opacity="1.000"
  		d="M10.12,4.82C10.14,4.76,10.72,4.89,11.42,5.11C12.12,5.33,12.68,5.56,12.66,5.62C12.64,5.67,12.06,5.54,11.36,5.32C10.66,5.10,10.10,4.87,10.12,4.82z"/>
  	<path fill="#C1C9FF" fill-opacity="1.000"
  		d="M18.29,13.17Q16.02,8.92,12.55,7.13Q12.40,6.89,12.20,6.85L12.15,6.96C11.63,7.02,9.99,6.53,9.74,5.95L9.79,5.83Q7.81,5.20,4.66,4.64Q4.30,4.92,4.23,5.48Q4.10,6.11,4.67,6.34L9.17,7.10Q10.29,8.24,12.12,8.19C15.09,9.35,16.52,11.78,18.24,13.22"/>
  	<path fill="#000000" fill-opacity="0.188"
  		d="M10.12,4.81Q10.22,4.91,10.66,5.06Q10.26,6.22,10.85,6.71Q8.16,5.53,9.79,5.82z"/>
  	<path fill="#000000" fill-opacity="0.188"
  		d="M9.32,7.25C9.93,7.81,10.60,8.11,11.72,8.19L11.57,8.66C11.01,8.74,10.52,8.65,10.10,8.40L7.34,16.41C7.29,16.93,7.70,17.30,8.45,17.22C7.50,17.92,6.36,17.58,6.27,16.49L9.32,7.25z"/>
  	<path fill="#000000" fill-opacity="0.188"
  		d="M12.12,8.19L12.28,7.58Q14.26,7.92,18.24,13.22C16.15,11.47,15.04,9.27,12.12,8.19z"/>
  	<path fill="#000000" fill-opacity="0.188"
  		d="M9.18,7.12L4.67,6.33Q4.10,6.11,4.23,5.48L9.40,6.30L9.18,7.12z"/>
  	<path fill="#000000" fill-opacity="0.396"
  		d="M12.28,7.58Q10.59,7.50,9.40,6.30L9.18,7.12Q10.24,8.23,12.12,8.19"/>
  </g>
</svg>